[color=red][b]Jassi Gill Lancer Full Video Song (Official) Bachmate 2 _{Shrivastava} {IBRG}[/b][/color]

[img]http://img132.imageshack.us/img132/1273/ibrg.jpg[/img]

[b]torrent include two  music files 
video and mp3 
video = (MP4)720p
mp3 =320kbps
[/b]

[size=2][b]Snapshot 
[/b][/size]

[img]http://stpicz.com/images/178_vlcsnap_2013_01_19_10h.jpg[/img]
[img]http://stpicz.com/images/398_vlcsnap_2013_01_19_10h.jpg[/img]
[img]http://stpicz.com/images/201_vlcsnap_2013_01_19_10h.jpg[/img]

[code]
Video information


Complete name                    : Jassi Gill Lancer Full Video Song (Official) Bachmate 2 _ NEW PUNJABI VIDEO.MP4
Format                           : MPEG-4
Format profile                   : Base Media / Version 2
Codec ID                         : mp42
File size                        : 82.2 MiB
Duration                         : 4mn 8s
Overall bit rate                 : 2 773 Kbps
Encoded date                     : UTC 2013-01-01 05:38:27
Tagged date                      : UTC 2013-01-01 05:38:27
gsst                             : 0
gstd                             : 248731
gssd                             : BB64FFD88HH1357908080179476
gshh                             :

Video
ID                               : 1
Format                           : AVC
Format/Info                      : Advanced Video Codec
Format profile                   : High@L3.1
Format settings, CABAC           : Yes
Format settings, ReFrames        : 1 frame
Codec ID                         : avc1
Codec ID/Info                    : Advanced Video Coding
Duration                         : 4mn 8s
Bit rate mode                    : Variable
Bit rate                         : 2 579 Kbps
Maximum bit rate                 : 8 524 Kbps
Width                            : 1 280 pixels
Height                           : 720 pixels
Display aspect ratio             : 16:9
Frame rate mode                  : Constant
Frame rate                       : 25.000 fps
Color space                      : YUV
Chroma subsampling               : 4:2:0
Bit depth                        : 8 bits
Scan type                        : Progressive
Bits/(Pixel*Frame)               : 0.112
Stream size                      : 76.4 MiB (93%)
Tagged date                      : UTC 2013-01-01 05:38:27

Audio
ID                               : 2
Format                           : AAC
Format/Info                      : Advanced Audio Codec
Format profile                   : LC
Codec ID                         : 40
Duration                         : 4mn 8s
Bit rate mode                    : Variable
Bit rate                         : 192 Kbps
Maximum bit rate                 : 203 Kbps
Channel(s)                       : 2 channels
Channel positions                : Front: L R
Sampling rate                    : 44.1 KHz
Compression mode                 : Lossy
Stream size                      : 5.69 MiB (7%)
Title                            : IsoMedia File Produced by Google, 5-11-2011
Encoded date                     : UTC 2013-01-01 05:38:27
Tagged date                      : UTC 2013-01-01 05:38:27
[/code]

[code]
Audio Information 


General
Complete name                    : Jassi Gill Lancer Full Video Song (Official) Bachmate 2 _ NEW PUNJABI VIDEO.mp3
Format                           : MPEG Audio
File size                        : 9.49 MiB
Duration                         : 4mn 8s
Overall bit rate                 : 320 Kbps
Track name                       : Shrivastava
Writing library                  : LAME3.98.2

Audio
Format                           : MPEG Audio
Format version                   : Version 1
Format profile                   : Layer 3
Mode                             : Joint stereo
Mode extension                   : MS Stereo
Duration                         : 4mn 8s
Bit rate mode                    : Constant
Bit rate                         : 320 Kbps
Channel(s)                       : 2 channels
Sampling rate                    : 44.1 KHz
Compression mode                 : Lossy
Stream size                      : 9.49 MiB (100%)
Writing library                  : LAME3.98.2


[/code]


Shrivastava[/url]*ΓÇó-)ΓÇóΓÇôΓÇôΓÇôΓÇôΓÇôΓÇôΓÇôΓÇôΓÇóBoys Release Group[/url]*ΓÇó-)ΓÇóΓÇôΓÇôΓÇôΓÇôΓÇôΓÇôΓÇôΓÇôΓÇóSad Shyri}[/url]ΓÇó-)ΓÇóΓÇôΓÇôΓÇôΓÇôΓÇôΓÇôΓÇôΓÇôΓÇó[/color]